<svg width="286" height="286" viewBox="0 0 286 286" fill="none" xmlns="http://www.w3.org/2000/svg">
<g clip-path="url(#clip0)">
<path d="M224.268 259.15C222.274 257.477 219.305 257.721 217.612 259.698C215.883 261.702 216.044 264.714 217.976 266.523C221.479 271.417 224.082 276.896 225.664 282.704C226.573 285.165 229.276 286.456 231.762 285.616C234.248 284.776 235.615 282.11 234.845 279.601C232.832 272.102 229.224 265.126 224.268 259.15Z" fill="#5F5346"/>
<path d="M256.014 257.162C249.484 254.933 243.38 251.612 237.962 247.342C235.864 245.697 232.833 246.054 231.175 248.141C229.775 249.938 229.84 252.474 231.33 254.196C230.467 254.223 229.629 254.488 228.907 254.962C226.705 256.481 226.149 259.496 227.666 261.7C233.219 269.815 239.422 277.467 246.212 284.58C248.114 286.417 251.138 286.391 253.007 284.521C254.877 282.651 254.903 279.627 253.066 277.725C247.454 271.864 242.285 265.594 237.603 258.966C242.398 262.057 247.558 264.541 252.965 266.363C253.457 266.528 253.973 266.611 254.492 266.61C256.869 266.607 258.893 264.881 259.271 262.534C259.649 260.187 258.27 257.912 256.014 257.162Z" fill="#5F5346"/>
<path d="M176.544 80.177C185.422 78.9964 193.823 75.4653 200.879 69.9488C204.248 66.975 206.13 62.6624 206.017 58.1695C205.976 48.6226 198.977 40.5326 189.536 39.119C187.638 38.7264 185.705 38.5314 183.767 38.5373C177.904 38.5674 172.171 40.2655 167.237 43.4332L154.241 33.4717L157.542 26.5641C168.308 19.9558 181.176 17.6696 193.559 20.1654C211.994 23.4327 225.435 39.4468 225.455 58.1695C225.544 68.0257 221.437 77.4547 214.161 84.1034C203.777 92.5647 191.235 97.9543 177.95 99.6637H177.902L155.259 90.2209L176.544 80.177Z" fill="#A59078"/>
<path d="M206.017 155.119C205.996 175.967 203.54 196.742 198.697 217.021L193.317 236.314C188.62 252.275 181.456 267.404 172.085 281.153H104.22C100.047 275.356 96.4121 269.191 93.362 262.732V262.684C83.4257 241.325 76.6803 218.623 73.342 195.304L70.8698 172.23C70.482 166.656 70.2881 160.936 70.2881 155.119C70.2881 127.44 81.2919 112.897 92.7804 103.736H92.8288C100.973 97.24 109.407 93.4105 114.352 89.4841H161.954C165.783 92.538 171.648 95.4949 177.902 99.6637H177.95C191.184 108.583 206.017 122.932 206.017 155.119Z" fill="#84B5CB"/>
<path d="M93.362 262.684C83.4256 241.325 76.6803 218.623 73.342 195.304L70.8698 172.23C70.482 166.656 70.2881 160.936 70.2881 155.119C70.2881 127.44 81.2919 112.897 92.7803 103.736H92.8288C100.973 97.24 109.407 93.4105 114.352 89.4841H156.04C171.939 132.336 184.155 210.428 93.362 262.684Z" fill="#9FC9D3"/>
<path d="M142.224 248.772C149.661 251.877 156.488 256.276 162.39 261.763C162.651 248.822 164.03 235.929 166.51 223.225L170.485 203.981C177.514 172.763 186.627 145.424 186.627 145.424C181.78 111.492 138.153 121.186 138.153 121.186C138.153 121.186 143 172.536 131.512 204.849C120.023 237.162 142.224 248.772 142.224 248.772Z" fill="#F0C419"/>
<path d="M122.592 190.117C129.902 167.672 135.112 144.596 138.153 121.186C152.695 150.271 186.627 145.424 186.627 145.424C171.553 158.591 159.908 175.228 152.695 193.898C152.259 195.11 151.774 196.322 151.386 197.534L146.054 216.197C143.567 226.878 142.282 237.804 142.224 248.772C142.166 253.115 142.426 257.457 143 261.763C113.915 261.763 99.3729 232.678 99.3729 232.678C106.02 225.549 111.397 217.335 115.273 208.392L122.592 190.117Z" fill="#F3D55B"/>
<path d="M186.627 145.424C186.627 145.424 152.695 150.271 138.153 121.186C138.153 121.186 181.78 111.492 186.627 145.424Z" fill="#F29C1F"/>
<path d="M225.94 238.64L220.899 247.075L210.913 250.759C205.812 245.081 199.879 240.211 193.317 236.314C170.485 222.062 138.056 213.288 115.273 208.392C100.846 205.65 86.7792 201.275 73.342 195.353V195.304C51.5285 185.367 33.6414 170.243 31.6539 147.944C29.4241 121.914 50.4136 99.179 66.4102 92.7803C77.0261 88.5146 87.4481 84.9759 100.003 80.8071C103.786 85.0983 108.794 88.1266 114.352 89.4841C109.407 93.4105 100.973 97.24 92.8288 103.736H92.7803C92.6834 103.784 92.6349 103.881 92.538 103.978C92.5012 103.983 92.4672 104 92.441 104.026C83.4247 107.177 75.1356 110.231 73.6329 110.813C65.1983 114.158 49.5895 129.718 51.0437 146.296C51.8678 155.991 58.6542 164.765 70.8698 172.23C86.9149 182.022 106.45 186.53 122.592 190.117C145.278 195.11 175.187 203.642 198.697 216.972C209.024 222.472 218.257 229.816 225.94 238.64Z" fill="#A59078"/>
<path d="M64.2676 237.671L50.8983 241.011V227.831C50.8983 225.153 48.728 222.983 46.0508 222.983C43.3737 222.983 41.2034 225.153 41.2034 227.831V241.011L27.8341 237.671C26.1381 237.206 24.3233 237.696 23.0918 238.951C21.8602 240.206 21.4052 242.03 21.9027 243.717C22.4002 245.404 23.7722 246.689 25.4879 247.075L37.7908 250.153L27.6305 263.702C26.0242 265.843 26.4583 268.882 28.6 270.488C30.7417 272.094 33.7801 271.66 35.3864 269.519L46.0508 255.296L56.7152 269.519C58.3216 271.66 61.3599 272.094 63.5017 270.488C65.6434 268.882 66.0775 265.843 64.4712 263.702L54.2915 250.129L66.5944 247.051C68.3101 246.665 69.6821 245.38 70.1796 243.693C70.6771 242.006 70.2221 240.182 68.9905 238.927C67.759 237.671 65.9442 237.182 64.2482 237.647L64.2676 237.671Z" fill="#3F5C6C"/>
<path d="M264.041 115.161C263.39 112.567 260.761 110.99 258.166 111.637L244.797 114.977V101.797C244.797 99.1194 242.626 96.9492 239.949 96.9492C237.272 96.9492 235.102 99.1194 235.102 101.797V114.977L221.732 111.637C220.036 111.172 218.222 111.662 216.99 112.917C215.759 114.173 215.304 115.996 215.801 117.683C216.299 119.37 217.671 120.655 219.386 121.041L231.689 124.119L221.529 137.668C220.49 139.053 220.269 140.888 220.949 142.48C221.629 144.073 223.108 145.182 224.827 145.389C226.546 145.596 228.246 144.87 229.285 143.485L239.949 129.262L250.614 143.485C252.22 145.627 255.258 146.061 257.4 144.454C259.542 142.848 259.976 139.81 258.37 137.668L248.19 124.119L260.493 121.041C261.744 120.734 262.822 119.941 263.488 118.838C264.154 117.734 264.353 116.411 264.041 115.161Z" fill="#3F5C6C"/>
<path d="M73.6038 34.1794L65.4407 36.8989V29.0847C65.4407 26.4076 63.2704 24.2373 60.5932 24.2373C57.916 24.2373 55.7458 26.4076 55.7458 29.0847V36.9037L47.5826 34.1794C45.9374 33.6322 44.1252 34.0042 42.8286 35.1554C41.5321 36.3066 40.9482 38.062 41.2968 39.7605C41.6455 41.4589 42.8738 42.8423 44.5191 43.3896L53.036 46.2302L46.8652 55.4889C45.9041 56.9297 45.7846 58.7739 46.5519 60.3268C47.3191 61.8796 48.8565 62.9052 50.5849 63.0171C52.3134 63.1291 53.9702 62.3104 54.9314 60.8695L60.5932 52.3525L66.255 60.8453C67.7409 63.0727 70.7511 63.6739 72.9785 62.188C75.2059 60.7022 75.807 57.692 74.3212 55.4646L68.1504 46.206L76.6674 43.3654C78.3126 42.8181 79.5409 41.4347 79.8896 39.7362C80.2383 38.0378 79.6544 36.2823 78.3578 35.1312C77.0613 33.98 75.249 33.6079 73.6038 34.1552V34.1794Z" fill="#3F5C6C"/>
<path d="M128.458 0H147.847C153.202 0 157.542 4.34056 157.542 9.69492V32.0465H118.763V9.69492C118.763 4.34056 123.103 0 128.458 0Z" fill="#7F6E5D"/>
<path d="M118.763 79.983V40.3939H157.542V79.983H118.763Z" fill="#2FA8CC"/>
<path d="M225.901 238.676L210.816 250.853C208.733 252.534 208.407 255.586 210.089 257.668L216.177 265.211C217.858 267.294 220.91 267.619 222.993 265.938L238.078 253.761C240.161 252.08 240.486 249.029 238.805 246.946L232.717 239.403C231.035 237.32 227.984 236.995 225.901 238.676Z" fill="#7F6E5D"/>
<path d="M162.39 29.0847H113.915C111.238 29.0847 109.068 31.255 109.068 33.9322V43.6271C109.068 46.3043 111.238 48.4746 113.915 48.4746H162.39C165.067 48.4746 167.237 46.3043 167.237 43.6271V33.9322C167.237 31.255 165.067 29.0847 162.39 29.0847Z" fill="#67B9CC"/>
<path d="M138.153 92.1017C126.717 92.5971 115.311 90.5938 104.729 86.2314C101.631 84.6814 99.595 81.5963 99.3883 78.1381C99.1815 74.68 100.835 71.3742 103.727 69.466C106.618 67.5579 110.308 67.3372 113.406 68.8872C121.327 71.7609 129.733 73.0601 138.153 72.7119C146.613 73.0681 155.06 71.7502 163.01 68.8339C167.822 66.5699 173.561 68.5827 175.905 73.3566C178.243 78.1087 176.31 83.8571 171.576 86.2314C160.994 90.5938 149.588 92.5971 138.153 92.1017Z" fill="#67B9CC"/>
</g>
<defs>
<clipPath id="clip0">
<rect width="286" height="286" fill="white"/>
</clipPath>
</defs>
</svg>
